<svg xmlns="http://www.w3.org/2000/svg" xmlns:xlink="http://www.w3.org/1999/xlink" version="1.0" x="0" y="0" width="2400" height="1306.427220610695" viewBox="34.34 51.15420516967774 271.32 147.69159729003906" preserveAspectRatio="xMidYMid meet" color-interpolation-filters="sRGB"><g><defs><linearGradient id="92" x1="0%" y1="0%" x2="100%" y2="0%"><stop offset="0%" stop-color="#fa71cd"></stop> <stop offset="100%" stop-color="#9b59b6"></stop></linearGradient><linearGradient id="93" x1="0%" y1="0%" x2="100%" y2="0%"><stop offset="0%" stop-color="#f9d423"></stop> <stop offset="100%" stop-color="#f83600"></stop></linearGradient><linearGradient id="94" x1="0%" y1="0%" x2="100%" y2="0%"><stop offset="0%" stop-color="#0064d2"></stop> <stop offset="100%" stop-color="#1cb0f6"></stop></linearGradient><linearGradient id="95" x1="0%" y1="0%" x2="100%" y2="0%"><stop offset="0%" stop-color="#f00978"></stop> <stop offset="100%" stop-color="#3f51b1"></stop></linearGradient><linearGradient id="96" x1="0%" y1="0%" x2="100%" y2="0%"><stop offset="0%" stop-color="#7873f5"></stop> <stop offset="100%" stop-color="#ec77ab"></stop></linearGradient><linearGradient id="97" x1="0%" y1="0%" x2="100%" y2="0%"><stop offset="0%" stop-color="#f9d423"></stop> <stop offset="100%" stop-color="#e14fad"></stop></linearGradient><linearGradient id="98" x1="0%" y1="0%" x2="100%" y2="0%"><stop offset="0%" stop-color="#009efd"></stop> <stop offset="100%" stop-color="#2af598"></stop></linearGradient><linearGradient id="99" x1="0%" y1="0%" x2="100%" y2="0%"><stop offset="0%" stop-color="#ffcc00"></stop> <stop offset="100%" stop-color="#00b140"></stop></linearGradient><linearGradient id="100" x1="0%" y1="0%" x2="100%" y2="0%"><stop offset="0%" stop-color="#d51007"></stop> <stop offset="100%" stop-color="#ff8177"></stop></linearGradient><linearGradient id="102" x1="0%" y1="0%" x2="100%" y2="0%"><stop offset="0%" stop-color="#a2b6df"></stop> <stop offset="100%" stop-color="#0c3483"></stop></linearGradient><linearGradient id="103" x1="0%" y1="0%" x2="100%" y2="0%"><stop offset="0%" stop-color="#7ac5d8"></stop> <stop offset="100%" stop-color="#eea2a2"></stop></linearGradient><linearGradient id="104" x1="0%" y1="0%" x2="100%" y2="0%"><stop offset="0%" stop-color="#00ecbc"></stop> <stop offset="100%" stop-color="#007adf"></stop></linearGradient><linearGradient id="105" x1="0%" y1="0%" x2="100%" y2="0%"><stop offset="0%" stop-color="#b88746"></stop> <stop offset="100%" stop-color="#fdf5a6"></stop></linearGradient></defs><g fill="#ffffff" class="j-b-g-c iconbgsvg" transform="translate(37,53.81420135498047)"><g transform="translate(0,0)"><g><rect fill="#ffffff" fill-opacity="0" stroke-width="2" x="0" y="0" width="266.0000000000001" height="142.37159800000003" class="image-rect"></rect> <svg filter="url(#colors3640909026)" x="0" y="0" width="266.0000000000001" height="142.37159800000003" filtersec="colorsf9515157063" class="image-svg-container primary" style="overflow: visible;"><svg xmlns="http://www.w3.org/2000/svg" viewBox="0 0 65 34.79" style="overflow: visible;"><g transform="scale(1, 0.71) skewX(0)" mask="url(#RoVyVGr3heIhgy0z9UAgn)"><g d-rs="3" transform="matrix(1,0,0,-1,0,49)" stroke-width="1.8" stroke-linejoin="round"><path d="M65 0v49H0V0h65zm-3 3H3v43h59V3z" fill="#000" fill-rule="nonzero" stroke-width="1.8" stroke-linejoin="round"></path></g></g><mask id="RoVyVGr3heIhgy0z9UAgn"><g stroke="#000" fill="#fff"><g d-rs="3" transform="matrix(1,0,0,-1,0,49)" stroke-width="1.8" stroke-linejoin="round"><path d="M65 0v49H0V0h65zm-3 3H3v43h59V3z" fill-rule="nonzero" stroke-width="1.8" stroke-linejoin="round"></path></g></g></mask></svg></svg> <defs><filter id="colors3640909026"><feColorMatrix type="matrix" values="0 0 0 0 0.99609375  0 0 0 0 0.99609375  0 0 0 0 0.99609375  0 0 0 1 0" class="icon-feColorMatrix "></feColorMatrix></filter> <filter id="colorsf9515157063"><feColorMatrix type="matrix" values="0 0 0 0 0.99609375  0 0 0 0 0.99609375  0 0 0 0 0.99609375  0 0 0 1 0" class="icon-fecolormatrix"></feColorMatrix></filter> <filter id="colorsb3437764601"><feColorMatrix type="matrix" values="0 0 0 0 0  0 0 0 0 0  0 0 0 0 0  0 0 0 1 0" class="icon-fecolormatrix"></feColorMatrix></filter></defs></g></g> <g hollow-target="textRect" transform="translate(24.419998168945312,29.44577407836914)"><g class="iconsvg-imagesvg" transform="translate(78.580078125,0)"><g> <svg filter="url(#colors4349428139)" x="0" y="0" width="60" height="42.721045811201456" filtersec="colorsf4848339908" class="image-svg-svg primary" style="overflow: visible;"><svg xmlns="http://www.w3.org/2000/svg" viewBox="7.159475803375244 19.492460250854492 85.68242645263672 61.007537841796875" x="0px" y="0px"><path d="M92.84,19.72a.2.2,0,0,0-.28-.21c-3.57,1.57-3.62,3.68-3.51,4.42-.18.25-.37.49-.56.72a7.26,7.26,0,0,0,0-1.51,2.58,2.58,0,0,1-.06-.55.11.11,0,0,0-.19-.07,4.07,4.07,0,0,0-.55,3.14c-.22.26-.45.51-.69.77a5.52,5.52,0,0,0-.16-1.6,3.88,3.88,0,0,1-.07-1.06.09.09,0,0,0-.16-.05,6.33,6.33,0,0,0-.69,3.83l-.94.9a7.61,7.61,0,0,0,0-2,10.91,10.91,0,0,1,0-1.67.06.06,0,0,0-.11,0,7,7,0,0,0-1.08,4.83l-1,.84a8.32,8.32,0,0,0,0-3,9,9,0,0,1,0-1.74s-.05-.07-.08,0c-1.91,2-1.5,4.95-1.31,5.86-.45.34-.91.67-1.38,1a13.15,13.15,0,0,0,0-3.78,6.05,6.05,0,0,1,.1-1.82.07.07,0,0,0-.12-.06,8.7,8.7,0,0,0-1.44,6.68c-.47.31-1,.62-1.45.92a25.43,25.43,0,0,0,0-4,10.66,10.66,0,0,1,.17-2.77s0,0,0,0a8.46,8.46,0,0,0-1.77,7.77c-.67.39-1.35.78-2,1.15a17,17,0,0,0,.36-5,12.81,12.81,0,0,1,.24-3.12s0-.07-.08,0c-3.08,3.35-2.55,7.91-2.34,9.14-.7.37-1.4.73-2.12,1.08a17.1,17.1,0,0,0,.48-5,21.08,21.08,0,0,1,.33-3.88.13.13,0,0,0-.23-.1,13.94,13.94,0,0,0-2.58,10l-2,1a24.2,24.2,0,0,0,.33-5.93A14.1,14.1,0,0,1,66,31.09a.18.18,0,0,0-.31-.15c-2.83,3.44-2.62,8.89-2.48,10.57l-2.11.94a23.85,23.85,0,0,0,.3-6.14A24.89,24.89,0,0,1,61.48,32a.22.22,0,0,0-.39-.16c-3,4.17-2.68,9.87-2.47,11.68l-2.56,1.1c.64-2.84.4-6,.4-8.53a18.26,18.26,0,0,1,.25-3.41.15.15,0,0,0-.25-.13C53.07,36,53.24,43.42,53.4,45.76L50.58,47h0c1-3.44.28-7.2.17-9.91a14.38,14.38,0,0,1,.2-3.76,0,0,0,0,0-.07,0c-4.55,4.13-4,13.15-3.78,15.28-1.08.5-2.15,1-3.21,1.51a29.46,29.46,0,0,0,.61-10.48,19.45,19.45,0,0,1-.09-4.54.15.15,0,0,0-.26-.12C39.38,40.45,40.59,49.17,41,51.5l-.91.48c-1,.51-1.94,1.05-2.9,1.61a23.91,23.91,0,0,0,.69-11.38A27.37,27.37,0,0,1,37.85,36a.19.19,0,0,0-.34-.13C31.59,43.13,34,51.72,35.23,54.8c-1.41.88-2.79,1.81-4.13,2.76a30.46,30.46,0,0,0,.51-11.47,46,46,0,0,1-.5-8.72.23.23,0,0,0-.4-.18c-7,7.11-3.39,19.58-2.43,22.44-1.42,1.07-2.78,2.16-4.1,3.26,1.87-7.58,0-19.53-.64-22.93a.4.4,0,0,0-.73-.15c-6.38,9.7-2.75,22.36-1.63,25.66A142.62,142.62,0,0,0,7.27,79.7a.49.49,0,0,0,.38.8l5.11,0a.49.49,0,0,0,.38-.18A163.48,163.48,0,0,1,24.33,67.84,40.18,40.18,0,0,0,44.89,73a.4.4,0,0,0,.25-.7c-2.19-1.91-9.2-7.34-18-7.2,1.3-1.24,2.65-2.48,4.05-3.7,2.71,1.85,11.15,7.2,18.76,7.45a.23.23,0,0,0,.14-.42,20.9,20.9,0,0,1-4.68-3.82,13.7,13.7,0,0,0-11.49-5.52c1-.84,2.07-1.66,3.12-2.44,2.3,1.73,10.55,7.57,17.21,7.5a.19.19,0,0,0,.1-.35,14.12,14.12,0,0,1-3.58-3.62,15.11,15.11,0,0,0-10.13-6c1-.65,2-1.26,3-1.82,1.85,1.64,8.22,6.78,15.63,7a.15.15,0,0,0,.08-.28,11.79,11.79,0,0,1-2.71-2.42c-1.29-1.63-3.38-4.26-10.1-5.83.64-.3,1.28-.58,1.91-.83l1.09-.43c1.83,1.69,6.84,5.49,15.29,5.9,0,0,.06,0,0-.07a17.93,17.93,0,0,1-3.89-3.34A14.82,14.82,0,0,0,53.3,48l1.88-.81c2.27,1.22,8.59,4.38,13.17,4.21a.15.15,0,0,0,.07-.27A16.34,16.34,0,0,1,66,49.27a13.88,13.88,0,0,0-7.78-3.42l2.48-1.16c1.8,1,7,3.73,11.87,3.68a.22.22,0,0,0,.09-.42A21.46,21.46,0,0,1,70,46.33a14.73,14.73,0,0,0-7.16-2.65c.93-.47,1.86-.93,2.77-1.4a21,21,0,0,0,10.81,3.16.08.08,0,0,0,0-.16,22.94,22.94,0,0,1-2.25-1.2,21,21,0,0,0-6.51-2.9l1.5-.82a18.24,18.24,0,0,0,11.1,1.74.08.08,0,0,0,0-.15,7.81,7.81,0,0,1-2.89-1,11.63,11.63,0,0,0-6.08-1.78l2.29-1.35a15.16,15.16,0,0,0,9.71,1.32s0-.08,0-.08A13.12,13.12,0,0,1,80,37.84a10.57,10.57,0,0,0-4.83-1c.68-.43,1.35-.86,2-1.3a16.92,16.92,0,0,0,8.25.81s0,0,0,0a10.14,10.14,0,0,1-2.88-.82,9.67,9.67,0,0,0-3.9-1l1.26-.9c1.36.3,5,.94,7.22-.28a.08.08,0,0,0,0-.14,8.22,8.22,0,0,1-2.3-.42,9.63,9.63,0,0,0-3.57-.14c.45-.35.89-.69,1.32-1a9.6,9.6,0,0,0,6.2-.85,0,0,0,0,0,0-.09,15.48,15.48,0,0,1-2.46-.12,8.56,8.56,0,0,0-2.37-.06l1-.85a7.22,7.22,0,0,0,5.27-1.19.06.06,0,0,0,0-.11,4.15,4.15,0,0,1-1.17,0,5.47,5.47,0,0,0-2.7,0l.83-.83a5.39,5.39,0,0,0,4-1.33.09.09,0,0,0-.08-.15,5.4,5.4,0,0,1-1.33.19,7.09,7.09,0,0,0-1.64.21l.56-.66a4.19,4.19,0,0,0,3.35-1.43.11.11,0,0,0-.13-.17,4.07,4.07,0,0,1-1.14.34,7.18,7.18,0,0,0-1.23.2c.13-.19.27-.37.39-.55C92.05,23.83,92.69,20.76,92.84,19.72Z"></path></svg></svg> <defs><filter id="colors4349428139"><feColorMatrix type="matrix" values="0 0 0 0 0.99609375  0 0 0 0 0.99609375  0 0 0 0 0.99609375  0 0 0 1 0" class="icon-fecolormatrix"></feColorMatrix></filter> <filter id="colorsf4848339908"><feColorMatrix type="matrix" values="0 0 0 0 0.99609375  0 0 0 0 0.99609375  0 0 0 0 0.99609375  0 0 0 1 0" class="icon-fecolormatrix"></feColorMatrix></filter> <filter id="colorsb3281562660"><feColorMatrix type="matrix" values="0 0 0 0 0  0 0 0 0 0  0 0 0 0 0  0 0 0 1 0" class="icon-fecolormatrix"></feColorMatrix></filter></defs></g></g> <g transform="translate(0,51.721046447753906)"><g fill-rule="" class="tp-name iconsvg-namesvg" transform="translate(0,0)"><g transform="scale(1.2200000000000002)"><g><path d="M2.51 0.12L2.51 0.12Q1.87 0.12 1.61-0.11 1.34-0.35 1.34-0.91L1.34-0.91 1.34-10.21Q1.54-10.45 1.91-10.59 2.29-10.73 2.74-10.73L2.74-10.73Q3.28-10.73 3.71-10.54 4.14-10.35 4.47-9.77L4.47-9.77 6.98-5.25Q7.33-4.62 7.65-3.95 7.98-3.28 8.22-2.72L8.22-2.72 8.29-2.74Q8.2-3.77 8.18-4.74 8.15-5.71 8.15-6.65L8.15-6.65 8.15-10.61Q8.29-10.65 8.58-10.69 8.87-10.73 9.16-10.73L9.16-10.73Q9.81-10.73 10.08-10.5 10.35-10.26 10.35-9.7L10.35-9.7 10.35-0.28Q10.16-0.09 9.8 0.02 9.44 0.12 8.95 0.12L8.95 0.12Q8.43 0.12 8-0.06 7.57-0.24 7.24-0.82L7.24-0.82 4.73-5.34Q4.38-5.95 4.06-6.64 3.73-7.33 3.49-7.89L3.49-7.89 3.39-7.87Q3.47-6.91 3.5-5.9 3.53-4.89 3.53-3.98L3.53-3.98 3.53-0.02Q3.39 0.02 3.11 0.07 2.83 0.12 2.51 0.12ZM14.24 0.03L14.24 0.03Q13.68 0.03 13.36-0.3 13.04-0.63 13.04-1.19L13.04-1.19 13.04-9.39Q13.04-9.95 13.36-10.27 13.68-10.59 14.24-10.59L14.24-10.59 20.02-10.59Q20.1-10.45 20.17-10.23 20.24-10 20.24-9.72L20.24-9.72Q20.24-9.27 20.03-9.02 19.83-8.78 19.46-8.78L19.46-8.78 15.24-8.78 15.24-6.3 19.49-6.3Q19.58-6.16 19.66-5.94 19.74-5.72 19.74-5.45L19.74-5.45Q19.74-4.5 18.94-4.5L18.94-4.5 15.24-4.5 15.24-1.8 20.09-1.8Q20.17-1.66 20.25-1.42 20.33-1.19 20.33-0.91L20.33-0.91Q20.33 0.03 19.53 0.03L19.53 0.03 14.24 0.03ZM27.26-7.99L27.26-7.99Q27.43-8.08 27.74-8.16 28.05-8.24 28.38-8.24L28.38-8.24Q28.94-8.24 29.29-8.07 29.65-7.91 29.74-7.57L29.74-7.57Q30-6.74 30.22-6.02 30.44-5.31 30.65-4.63 30.86-3.96 31.05-3.31 31.24-2.65 31.43-1.95L31.43-1.95 31.5-1.95Q31.71-3.07 31.88-4.12 32.06-5.17 32.23-6.2 32.41-7.23 32.56-8.27 32.71-9.32 32.86-10.44L32.86-10.44Q33.32-10.68 33.86-10.68L33.86-10.68Q34.35-10.68 34.69-10.46 35.03-10.24 35.03-9.76L35.03-9.76Q35.03-9.41 34.94-8.71 34.85-8.01 34.7-7.14 34.55-6.27 34.35-5.28 34.15-4.29 33.94-3.36 33.72-2.43 33.5-1.62 33.28-0.82 33.07-0.31L33.07-0.31Q32.86-0.14 32.44-0.02 32.02 0.1 31.55 0.1L31.55 0.1Q30.94 0.1 30.51-0.08 30.09-0.26 30-0.56L30-0.56Q29.84-0.96 29.66-1.51 29.48-2.06 29.28-2.71 29.08-3.35 28.87-4.06 28.66-4.76 28.46-5.5L28.46-5.5Q28.27-4.78 28.07-4.04 27.87-3.3 27.68-2.61 27.49-1.92 27.29-1.32 27.1-0.72 26.95-0.3L26.95-0.3Q26.75-0.14 26.36-0.02 25.97 0.1 25.5 0.1L25.5 0.1Q24.9 0.1 24.45-0.08 24-0.26 23.86-0.56L23.86-0.56Q23.7-0.91 23.51-1.55 23.32-2.2 23.11-3.03 22.9-3.86 22.69-4.82 22.48-5.78 22.29-6.73 22.09-7.68 21.93-8.58 21.76-9.48 21.68-10.21L21.68-10.21Q21.87-10.38 22.18-10.53 22.5-10.68 22.9-10.68L22.9-10.68Q23.39-10.68 23.69-10.45 24-10.23 24.08-9.72L24.08-9.72Q24.35-8.27 24.54-7.16 24.73-6.06 24.9-5.15 25.06-4.24 25.21-3.47 25.36-2.71 25.51-1.95L25.51-1.95 25.6-1.95Q25.79-2.71 25.98-3.35 26.16-4 26.35-4.68 26.54-5.36 26.76-6.15 26.98-6.95 27.26-7.99ZM40.4 0L40.4 0Q40.17-0.19 40.03-0.49 39.9-0.79 39.9-1.15L39.9-1.15Q39.9-1.5 40.06-1.83 40.23-2.16 40.47-2.48L40.47-2.48 45.36-8.74 40.28-8.74Q40.19-8.9 40.11-9.13 40.03-9.35 40.03-9.65L40.03-9.65Q40.03-10.14 40.25-10.38 40.47-10.63 40.87-10.63L40.87-10.63 47.56-10.63Q48.12-10.16 48.12-9.44L48.12-9.44Q48.12-9.09 47.97-8.78 47.82-8.46 47.57-8.15L47.57-8.15 42.67-1.87 47.98-1.87Q48.06-1.71 48.15-1.48 48.24-1.26 48.24-0.96L48.24-0.96Q48.24-0.47 48.02-0.24 47.8 0 47.42 0L47.42 0 40.4 0ZM51.47 0.03L51.47 0.03Q50.91 0.03 50.58-0.3 50.26-0.63 50.26-1.19L50.26-1.19 50.26-9.39Q50.26-9.95 50.58-10.27 50.91-10.59 51.47-10.59L51.47-10.59 57.24-10.59Q57.33-10.45 57.4-10.23 57.47-10 57.47-9.72L57.47-9.72Q57.47-9.27 57.26-9.02 57.05-8.78 56.68-8.78L56.68-8.78 52.46-8.78 52.46-6.3 56.72-6.3Q56.81-6.16 56.88-5.94 56.96-5.72 56.96-5.45L56.96-5.45Q56.96-4.5 56.16-4.5L56.16-4.5 52.46-4.5 52.46-1.8 57.31-1.8Q57.4-1.66 57.48-1.42 57.56-1.19 57.56-0.91L57.56-0.91Q57.56 0.03 56.75 0.03L56.75 0.03 51.47 0.03ZM66.35-0.75L65.83-2.5 61.92-2.5Q61.73-1.85 61.51-1.15 61.29-0.45 61.15 0L61.15 0Q60.98 0.07 60.78 0.12 60.58 0.17 60.28 0.17L60.28 0.17Q59.69 0.17 59.35-0.06 59.02-0.3 59.02-0.73L59.02-0.73Q59.02-0.94 59.08-1.14 59.14-1.34 59.23-1.61L59.23-1.61Q59.37-2.09 59.61-2.78 59.84-3.47 60.11-4.28 60.38-5.1 60.7-5.96 61.01-6.82 61.3-7.64 61.59-8.45 61.86-9.15 62.13-9.86 62.32-10.37L62.32-10.37Q62.55-10.49 62.99-10.61 63.44-10.73 63.89-10.73L63.89-10.73Q64.5-10.73 65.01-10.55 65.51-10.37 65.65-9.97L65.65-9.97Q66-9.01 66.42-7.76 66.84-6.51 67.27-5.18 67.7-3.86 68.1-2.58 68.5-1.31 68.81-0.3L68.81-0.3Q68.64-0.1 68.33 0.03 68.03 0.16 67.61 0.16L67.61 0.16Q67 0.16 66.75-0.06 66.49-0.28 66.35-0.75L66.35-0.75ZM63.96-8.74L63.87-8.74Q63.72-8.31 63.53-7.77 63.35-7.23 63.15-6.64 62.95-6.06 62.74-5.45 62.53-4.85 62.34-4.28L62.34-4.28 65.38-4.28 63.96-8.74ZM71.76 0.03L71.76 0.03Q71.2 0.03 70.88-0.3 70.56-0.63 70.56-1.19L70.56-1.19 70.56-10.59Q70.7-10.63 71-10.68 71.31-10.73 71.61-10.73L71.61-10.73Q72.23-10.73 72.53-10.51 72.83-10.28 72.83-9.67L72.83-9.67 72.83-1.83 77.31-1.83Q77.4-1.69 77.49-1.46 77.57-1.22 77.57-0.94L77.57-0.94Q77.57-0.47 77.36-0.22 77.14 0.03 76.75 0.03L76.75 0.03 71.76 0.03ZM86.02-0.75L85.5-2.5 81.59-2.5Q81.4-1.85 81.18-1.15 80.96-0.45 80.82 0L80.82 0Q80.65 0.07 80.45 0.12 80.24 0.17 79.95 0.17L79.95 0.17Q79.35 0.17 79.02-0.06 78.69-0.3 78.69-0.73L78.69-0.73Q78.69-0.94 78.75-1.14 78.81-1.34 78.9-1.61L78.9-1.61Q79.04-2.09 79.28-2.78 79.51-3.47 79.78-4.28 80.05-5.1 80.37-5.96 80.68-6.82 80.97-7.64 81.26-8.45 81.53-9.15 81.8-9.86 81.99-10.37L81.99-10.37Q82.22-10.49 82.66-10.61 83.11-10.73 83.56-10.73L83.56-10.73Q84.17-10.73 84.68-10.55 85.18-10.37 85.32-9.97L85.32-9.97Q85.67-9.01 86.09-7.76 86.51-6.51 86.94-5.18 87.36-3.86 87.77-2.58 88.17-1.31 88.48-0.3L88.48-0.3Q88.31-0.1 88 0.03 87.7 0.16 87.28 0.16L87.28 0.16Q86.67 0.16 86.41-0.06 86.16-0.28 86.02-0.75L86.02-0.75ZM83.63-8.74L83.54-8.74Q83.39-8.31 83.2-7.77 83.02-7.23 82.82-6.64 82.62-6.06 82.41-5.45 82.2-4.85 82.01-4.28L82.01-4.28 85.04-4.28 83.63-8.74ZM91.4 0.12L91.4 0.12Q90.75 0.12 90.49-0.11 90.23-0.35 90.23-0.91L90.23-0.91 90.23-10.21Q90.42-10.45 90.79-10.59 91.17-10.73 91.62-10.73L91.62-10.73Q92.16-10.73 92.59-10.54 93.02-10.35 93.35-9.77L93.35-9.77 95.86-5.25Q96.21-4.62 96.54-3.95 96.86-3.28 97.1-2.72L97.1-2.72 97.17-2.74Q97.09-3.77 97.06-4.74 97.03-5.71 97.03-6.65L97.03-6.65 97.03-10.61Q97.17-10.65 97.46-10.69 97.75-10.73 98.05-10.73L98.05-10.73Q98.69-10.73 98.96-10.5 99.23-10.26 99.23-9.7L99.23-9.7 99.23-0.28Q99.04-0.09 98.68 0.02 98.32 0.12 97.84 0.12L97.84 0.12Q97.31 0.12 96.88-0.06 96.46-0.24 96.13-0.82L96.13-0.82 93.61-5.34Q93.26-5.95 92.94-6.64 92.62-7.33 92.37-7.89L92.37-7.89 92.27-7.87Q92.36-6.91 92.38-5.9 92.41-4.89 92.41-3.98L92.41-3.98 92.41-0.02Q92.27 0.02 91.99 0.07 91.71 0.12 91.4 0.12ZM108.99-5.34L108.99-5.34Q108.99-6.28 108.73-6.97 108.46-7.66 108-8.11 107.54-8.55 106.9-8.77 106.27-8.99 105.51-8.99L105.51-8.99Q105.11-8.99 104.79-8.96 104.47-8.94 104.17-8.9L104.17-8.9 104.17-1.73Q104.47-1.66 104.84-1.63 105.22-1.61 105.58-1.61L105.58-1.61Q107.21-1.61 108.1-2.55 108.99-3.49 108.99-5.34ZM111.31-5.36L111.31-5.36Q111.31-3.94 110.9-2.89 110.49-1.83 109.74-1.14 108.99-0.45 107.93-0.1 106.88 0.24 105.58 0.24L105.58 0.24Q105.29 0.24 104.94 0.24 104.59 0.23 104.21 0.18 103.84 0.14 103.46 0.07 103.09 0 102.76-0.12L102.76-0.12Q101.92-0.44 101.92-1.17L101.92-1.17 101.92-9.72Q101.92-10.03 102.09-10.21 102.27-10.38 102.58-10.49L102.58-10.49Q103.23-10.72 103.99-10.78 104.75-10.84 105.43-10.84L105.43-10.84Q106.74-10.84 107.83-10.5 108.92-10.16 109.69-9.48 110.45-8.8 110.88-7.77 111.31-6.74 111.31-5.36ZM125.01-7.87L125.01-7.87Q125.01-7.09 124.6-6.51 124.19-5.93 123.37-5.58L123.37-5.58Q124.38-5.25 124.89-4.59 125.39-3.93 125.39-3.02L125.39-3.02Q125.39-1.36 124.19-0.56 122.98 0.24 120.7 0.24L120.7 0.24Q120.37 0.24 119.99 0.23 119.62 0.21 119.23 0.17 118.85 0.12 118.46 0.04 118.08-0.03 117.75-0.14L117.75-0.14Q116.91-0.42 116.91-1.17L116.91-1.17 116.91-9.7Q116.91-10.03 117.09-10.21 117.26-10.38 117.57-10.49L117.57-10.49Q118.17-10.68 118.95-10.76 119.74-10.84 120.59-10.84L120.59-10.84Q122.71-10.84 123.86-10.11 125.01-9.39 125.01-7.87ZM123.09-3.11L123.09-3.11Q123.09-3.8 122.59-4.21 122.09-4.61 121.15-4.61L121.15-4.61 119.11-4.61 119.11-1.69Q119.44-1.61 119.9-1.57 120.37-1.54 120.82-1.54L120.82-1.54Q121.88-1.54 122.49-1.91 123.09-2.29 123.09-3.11ZM119.11-8.97L119.11-6.27 120.87-6.27Q121.82-6.27 122.28-6.65 122.74-7.03 122.74-7.71L122.74-7.71Q122.74-9.09 120.61-9.09L120.61-9.09Q120.17-9.09 119.78-9.06 119.39-9.02 119.11-8.97L119.11-8.97ZM129.81-3.7L129.81-0.02Q129.65 0.02 129.36 0.07 129.08 0.12 128.74 0.12L128.74 0.12Q128.08 0.12 127.81-0.12 127.54-0.37 127.54-0.94L127.54-0.94 127.54-9.7Q127.54-10.03 127.71-10.21 127.89-10.38 128.2-10.49L128.2-10.49Q128.76-10.68 129.52-10.76 130.28-10.84 131.08-10.84L131.08-10.84Q133.39-10.84 134.54-9.89 135.69-8.94 135.69-7.26L135.69-7.26Q135.69-6.16 135.11-5.35 134.54-4.54 133.53-4.1L133.53-4.1Q134.29-3.11 135-2.21 135.71-1.31 136.06-0.8L136.06-0.8Q135.92-0.35 135.57-0.1 135.22 0.16 134.8 0.16L134.8 0.16Q134.26 0.16 133.97-0.09 133.68-0.33 133.4-0.75L133.4-0.75 131.43-3.7 129.81-3.7ZM129.77-5.48L131.2-5.48Q132.2-5.48 132.8-5.92 133.4-6.35 133.4-7.24L133.4-7.24Q133.4-9.01 131.05-9.01L131.05-9.01Q130.7-9.01 130.38-8.97 130.05-8.94 129.77-8.9L129.77-8.9 129.77-5.48ZM144.57-0.75L144.05-2.5 140.14-2.5Q139.95-1.85 139.73-1.15 139.51-0.45 139.37 0L139.37 0Q139.2 0.07 139 0.12 138.8 0.17 138.5 0.17L138.5 0.17Q137.91 0.17 137.57-0.06 137.24-0.3 137.24-0.73L137.24-0.73Q137.24-0.94 137.3-1.14 137.36-1.34 137.45-1.61L137.45-1.61Q137.59-2.09 137.83-2.78 138.06-3.47 138.33-4.28 138.6-5.1 138.92-5.96 139.23-6.82 139.52-7.64 139.81-8.45 140.08-9.15 140.35-9.86 140.54-10.37L140.54-10.37Q140.77-10.49 141.21-10.61 141.66-10.73 142.11-10.73L142.11-10.73Q142.72-10.73 143.23-10.55 143.73-10.37 143.87-9.97L143.87-9.97Q144.22-9.01 144.64-7.76 145.06-6.51 145.49-5.18 145.92-3.86 146.32-2.58 146.72-1.31 147.03-0.3L147.03-0.3Q146.86-0.1 146.55 0.03 146.25 0.16 145.83 0.16L145.83 0.16Q145.22 0.16 144.97-0.06 144.71-0.28 144.57-0.75L144.57-0.75ZM142.18-8.74L142.09-8.74Q141.94-8.31 141.75-7.77 141.57-7.23 141.37-6.64 141.17-6.06 140.96-5.45 140.75-4.85 140.56-4.28L140.56-4.28 143.6-4.28 142.18-8.74ZM149.95 0.12L149.95 0.12Q149.3 0.12 149.04-0.11 148.78-0.35 148.78-0.91L148.78-0.91 148.78-10.21Q148.97-10.45 149.35-10.59 149.72-10.73 150.17-10.73L150.17-10.73Q150.72-10.73 151.14-10.54 151.57-10.35 151.9-9.77L151.9-9.77 154.42-5.25Q154.76-4.62 155.09-3.95 155.41-3.28 155.65-2.72L155.65-2.72 155.72-2.74Q155.64-3.77 155.61-4.74 155.58-5.71 155.58-6.65L155.58-6.65 155.58-10.61Q155.72-10.65 156.01-10.69 156.3-10.73 156.6-10.73L156.6-10.73Q157.24-10.73 157.51-10.5 157.78-10.26 157.78-9.7L157.78-9.7 157.78-0.28Q157.59-0.09 157.23 0.02 156.88 0.12 156.39 0.12L156.39 0.12Q155.86 0.12 155.44-0.06 155.01-0.24 154.68-0.82L154.68-0.82 152.16-5.34Q151.82-5.95 151.49-6.64 151.17-7.33 150.92-7.89L150.92-7.89 150.82-7.87Q150.91-6.91 150.93-5.9 150.96-4.89 150.96-3.98L150.96-3.98 150.96-0.02Q150.82 0.02 150.54 0.07 150.26 0.12 149.95 0.12ZM167.54-5.34L167.54-5.34Q167.54-6.28 167.28-6.97 167.02-7.66 166.55-8.11 166.09-8.55 165.45-8.77 164.82-8.99 164.07-8.99L164.07-8.99Q163.66-8.99 163.34-8.96 163.02-8.94 162.72-8.9L162.72-8.9 162.72-1.73Q163.02-1.66 163.39-1.63 163.77-1.61 164.14-1.61L164.14-1.61Q165.76-1.61 166.65-2.55 167.54-3.49 167.54-5.34ZM169.86-5.36L169.86-5.36Q169.86-3.94 169.45-2.89 169.04-1.83 168.29-1.14 167.54-0.45 166.48-0.1 165.43 0.24 164.14 0.24L164.14 0.24Q163.84 0.24 163.49 0.24 163.14 0.23 162.77 0.18 162.39 0.14 162.02 0.07 161.64 0 161.31-0.12L161.31-0.12Q160.47-0.44 160.47-1.17L160.47-1.17 160.47-9.72Q160.47-10.03 160.65-10.21 160.82-10.38 161.13-10.49L161.13-10.49Q161.78-10.72 162.54-10.78 163.3-10.84 163.98-10.84L163.98-10.84Q165.29-10.84 166.38-10.5 167.47-10.16 168.24-9.48 169.01-8.8 169.43-7.77 169.86-6.74 169.86-5.36ZM175.06-1.59L175.06-1.59Q176.07-1.59 176.54-1.98 177.02-2.37 177.02-2.97L177.02-2.97Q177.02-3.51 176.65-3.83 176.28-4.15 175.53-4.38L175.53-4.38 174.42-4.73Q173.75-4.94 173.21-5.2 172.67-5.46 172.29-5.82 171.9-6.18 171.69-6.66 171.48-7.14 171.48-7.8L171.48-7.8Q171.48-9.21 172.55-10.04 173.61-10.87 175.46-10.87L175.46-10.87Q176.2-10.87 176.82-10.76 177.43-10.65 177.89-10.45 178.34-10.24 178.6-9.95 178.85-9.65 178.85-9.28L178.85-9.28Q178.85-8.94 178.68-8.68 178.52-8.43 178.27-8.27L178.27-8.27Q177.85-8.57 177.16-8.79 176.47-9.01 175.65-9.01L175.65-9.01Q174.75-9.01 174.28-8.68 173.8-8.36 173.8-7.8L173.8-7.8Q173.8-7.35 174.13-7.1 174.45-6.86 175.15-6.63L175.15-6.63 176.14-6.32Q177.66-5.86 178.5-5.08 179.34-4.29 179.34-2.95L179.34-2.95Q179.34-2.23 179.06-1.64 178.78-1.05 178.25-0.62 177.71-0.19 176.92 0.04 176.13 0.28 175.11 0.28L175.11 0.28Q174.31 0.28 173.64 0.14 172.97 0 172.48-0.24 171.99-0.47 171.72-0.79 171.45-1.12 171.45-1.5L171.45-1.5Q171.45-1.9 171.68-2.19 171.92-2.48 172.23-2.62L172.23-2.62Q172.67-2.23 173.39-1.91 174.1-1.59 175.06-1.59Z" transform="translate(-1.340000033378601, 10.869999885559082)"></path></g> </g></g> <g fill-rule="" class="tp-slogan iconsvg-slogansvg" fill="#ffffff" transform="translate(5,19.60300064086914)"><rect x="0" height="1" y="3.580000877380371" width="87.74500179290771"></rect> <rect height="1" y="3.580000877380371" width="87.74500179290771" x="119.41500186920166"></rect> <g transform="translate(90.74500179290771,0)"><g transform="scale(1)"><path d="M1.08-7.87L1.08 0L5.74 0L5.74-0.85L2.08-0.85L2.08-3.71L5.06-3.71L5.06-4.56L2.08-4.56L2.08-7.03L5.62-7.03L5.62-7.87ZM8.80-4.07L6.50 0L7.56 0L8.70-2.12C8.80-2.32 8.90-2.51 9-2.72C9.10-2.92 9.21-3.14 9.32-3.38L9.37-3.38C9.50-3.14 9.62-2.92 9.73-2.72C9.83-2.51 9.94-2.32 10.04-2.12L11.20 0L12.30 0L10.01-4.02L12.16-7.87L11.10-7.87L10.06-5.86C9.96-5.67 9.87-5.49 9.79-5.32C9.70-5.15 9.60-4.95 9.49-4.72L9.44-4.72C9.32-4.95 9.22-5.15 9.13-5.32C9.03-5.49 8.94-5.67 8.83-5.86L7.76-7.87L6.66-7.87ZM13.56-7.87L13.56 0L14.56 0L14.56-3.12L15.97-3.12C16.40-3.12 16.80-3.17 17.15-3.27C17.51-3.37 17.82-3.52 18.07-3.72C18.33-3.92 18.53-4.17 18.67-4.48C18.81-4.78 18.88-5.14 18.88-5.56C18.88-5.99 18.81-6.35 18.67-6.65C18.53-6.94 18.33-7.18 18.08-7.36C17.83-7.54 17.52-7.67 17.16-7.75C16.80-7.83 16.40-7.87 15.97-7.87ZM15.85-3.94L14.56-3.94L14.56-7.07L15.85-7.07C16.53-7.07 17.04-6.96 17.38-6.74C17.71-6.52 17.88-6.12 17.88-5.56C17.88-5.00 17.71-4.59 17.38-4.33C17.05-4.07 16.54-3.94 15.85-3.94ZM23.38 0.14C23.87 0.14 24.33 0.05 24.74-0.14C25.15-0.34 25.51-0.61 25.81-0.97C26.11-1.32 26.34-1.75 26.50-2.26C26.67-2.77 26.75-3.34 26.75-3.97C26.75-4.60 26.67-5.16 26.50-5.66C26.34-6.16 26.11-6.58 25.81-6.93C25.51-7.28 25.15-7.55 24.74-7.73C24.33-7.92 23.87-8.02 23.38-8.02C22.88-8.02 22.43-7.92 22.01-7.74C21.60-7.56 21.25-7.29 20.95-6.94C20.66-6.59 20.43-6.17 20.26-5.67C20.10-5.17 20.02-4.60 20.02-3.97C20.02-3.34 20.10-2.77 20.26-2.26C20.43-1.75 20.66-1.32 20.95-0.97C21.25-0.61 21.60-0.34 22.01-0.14C22.43 0.05 22.88 0.14 23.38 0.14ZM23.38-0.73C23.02-0.73 22.71-0.81 22.42-0.96C22.14-1.11 21.89-1.33 21.69-1.61C21.49-1.90 21.33-2.24 21.22-2.63C21.10-3.03 21.05-3.48 21.05-3.97C21.05-4.46 21.10-4.90 21.22-5.29C21.33-5.68 21.49-6.02 21.69-6.29C21.89-6.56 22.14-6.77 22.42-6.92C22.71-7.07 23.02-7.14 23.38-7.14C23.73-7.14 24.05-7.07 24.33-6.92C24.61-6.77 24.86-6.56 25.06-6.29C25.27-6.02 25.42-5.68 25.54-5.29C25.65-4.90 25.70-4.46 25.70-3.97C25.70-3.48 25.65-3.03 25.54-2.63C25.42-2.24 25.27-1.90 25.06-1.61C24.86-1.33 24.61-1.11 24.33-0.96C24.05-0.81 23.73-0.73 23.38-0.73Z" transform="translate(-1.08, 8.016)"></path></g></g></g></g></g></g><defs><filter id="8cbc940d-8b50-4458-9df5-6ed6c3f506ef"> <feColorMatrix type="matrix" values="0 0 0 0 0  0 0 0 0 0  0 0 0 0 0  0 0 0 1 0"></feColorMatrix> </filter><filter id="952005a5-1b40-4e85-a3e8-2ed28a2e0861"> <feColorMatrix type="matrix" values="0 0 0 0 0.99609375  0 0 0 0 0.99609375  0 0 0 0 0.99609375  0 0 0 1 0"></feColorMatrix> </filter></defs><mask id="de4a0788-df2c-4215-a2b8-485721df7543"><g fill="#ffffff" class="j-b-g-c iconbgsvg"><g transform="translate(0,0)"><g><rect fill="#ffffff" fill-opacity="0" stroke-width="2" x="0" y="0" width="266.0000000000001" height="142.37159800000003" class="image-rect" stroke="#000"></rect> <svg filter="url(#952005a5-1b40-4e85-a3e8-2ed28a2e0861)" x="0" y="0" width="266.0000000000001" height="142.37159800000003" filtersec="colorsf9515157063" class="image-svg-container primary" style="overflow: visible;"><svg xmlns="http://www.w3.org/2000/svg" viewBox="0 0 65 34.79" style="overflow: visible;"><g transform="scale(1, 0.71) skewX(0)" mask="url(#RoVyVGr3heIhgy0z9UAgn)"><g d-rs="3" transform="matrix(1,0,0,-1,0,49)" stroke-width="1.8" stroke-linejoin="round" stroke="#000"><path d="M65 0v49H0V0h65zm-3 3H3v43h59V3z" fill="#000" fill-rule="nonzero" stroke-width="1.8" stroke-linejoin="round" stroke="#000"></path></g></g><mask id="RoVyVGr3heIhgy0z9UAgn"><g stroke="#000" fill="#fff"><g d-rs="3" transform="matrix(1,0,0,-1,0,49)" stroke-width="1.8" stroke-linejoin="round" stroke="#000"><path d="M65 0v49H0V0h65zm-3 3H3v43h59V3z" fill-rule="nonzero" stroke-width="1.8" stroke-linejoin="round" stroke="#000"></path></g></g></mask></svg></svg> <defs><filter id="colors3640909026"><feColorMatrix type="matrix" values="0 0 0 0 0.99609375  0 0 0 0 0.99609375  0 0 0 0 0.99609375  0 0 0 1 0" class="icon-fecolormatrix"></feColorMatrix></filter> <filter id="colorsf9515157063"><feColorMatrix type="matrix" values="0 0 0 0 0.99609375  0 0 0 0 0.99609375  0 0 0 0 0.99609375  0 0 0 1 0" class="icon-fecolormatrix"></feColorMatrix></filter> <filter id="colorsb3437764601"><feColorMatrix type="matrix" values="0 0 0 0 0  0 0 0 0 0  0 0 0 0 0  0 0 0 1 0" class="icon-fecolormatrix"></feColorMatrix></filter></defs></g></g> <g hollow-target="textRect" transform="translate(24.419998168945312,29.44577407836914)"><g class="iconsvg-imagesvg" transform="translate(78.580078125,0)"><g> <svg filter="url(#colors4349428139)" x="0" y="0" width="60" height="42.721045811201456" filtersec="colorsf4848339908" class="image-svg-svg primary" style="overflow: visible;"><svg xmlns="http://www.w3.org/2000/svg" viewBox="7.159475803375244 19.492460250854492 85.68242645263672 61.007537841796875" x="0px" y="0px" style="overflow: visible;"><path d="M92.84,19.72a.2.2,0,0,0-.28-.21c-3.57,1.57-3.62,3.68-3.51,4.42-.18.25-.37.49-.56.72a7.26,7.26,0,0,0,0-1.51,2.58,2.58,0,0,1-.06-.55.11.11,0,0,0-.19-.07,4.07,4.07,0,0,0-.55,3.14c-.22.26-.45.51-.69.77a5.52,5.52,0,0,0-.16-1.6,3.88,3.88,0,0,1-.07-1.06.09.09,0,0,0-.16-.05,6.33,6.33,0,0,0-.69,3.83l-.94.9a7.61,7.61,0,0,0,0-2,10.91,10.91,0,0,1,0-1.67.06.06,0,0,0-.11,0,7,7,0,0,0-1.08,4.83l-1,.84a8.32,8.32,0,0,0,0-3,9,9,0,0,1,0-1.74s-.05-.07-.08,0c-1.91,2-1.5,4.95-1.31,5.86-.45.34-.91.67-1.38,1a13.15,13.15,0,0,0,0-3.78,6.05,6.05,0,0,1,.1-1.82.07.07,0,0,0-.12-.06,8.7,8.7,0,0,0-1.44,6.68c-.47.31-1,.62-1.45.92a25.43,25.43,0,0,0,0-4,10.66,10.66,0,0,1,.17-2.77s0,0,0,0a8.46,8.46,0,0,0-1.77,7.77c-.67.39-1.35.78-2,1.15a17,17,0,0,0,.36-5,12.81,12.81,0,0,1,.24-3.12s0-.07-.08,0c-3.08,3.35-2.55,7.91-2.34,9.14-.7.37-1.4.73-2.12,1.08a17.1,17.1,0,0,0,.48-5,21.08,21.08,0,0,1,.33-3.88.13.13,0,0,0-.23-.1,13.94,13.94,0,0,0-2.58,10l-2,1a24.2,24.2,0,0,0,.33-5.93A14.1,14.1,0,0,1,66,31.09a.18.18,0,0,0-.31-.15c-2.83,3.44-2.62,8.89-2.48,10.57l-2.11.94a23.85,23.85,0,0,0,.3-6.14A24.89,24.89,0,0,1,61.48,32a.22.22,0,0,0-.39-.16c-3,4.17-2.68,9.87-2.47,11.68l-2.56,1.1c.64-2.84.4-6,.4-8.53a18.26,18.26,0,0,1,.25-3.41.15.15,0,0,0-.25-.13C53.07,36,53.24,43.42,53.4,45.76L50.58,47h0c1-3.44.28-7.2.17-9.91a14.38,14.38,0,0,1,.2-3.76,0,0,0,0,0-.07,0c-4.55,4.13-4,13.15-3.78,15.28-1.08.5-2.15,1-3.21,1.51a29.46,29.46,0,0,0,.61-10.48,19.45,19.45,0,0,1-.09-4.54.15.15,0,0,0-.26-.12C39.38,40.45,40.59,49.17,41,51.5l-.91.48c-1,.51-1.94,1.05-2.9,1.61a23.91,23.91,0,0,0,.69-11.38A27.37,27.37,0,0,1,37.85,36a.19.19,0,0,0-.34-.13C31.59,43.13,34,51.72,35.23,54.8c-1.41.88-2.79,1.81-4.13,2.76a30.46,30.46,0,0,0,.51-11.47,46,46,0,0,1-.5-8.72.23.23,0,0,0-.4-.18c-7,7.11-3.39,19.58-2.43,22.44-1.42,1.07-2.78,2.16-4.1,3.26,1.87-7.58,0-19.53-.64-22.93a.4.4,0,0,0-.73-.15c-6.38,9.7-2.75,22.36-1.63,25.66A142.62,142.62,0,0,0,7.27,79.7a.49.49,0,0,0,.38.8l5.11,0a.49.49,0,0,0,.38-.18A163.48,163.48,0,0,1,24.33,67.84,40.18,40.18,0,0,0,44.89,73a.4.4,0,0,0,.25-.7c-2.19-1.91-9.2-7.34-18-7.2,1.3-1.24,2.65-2.48,4.05-3.7,2.71,1.85,11.15,7.2,18.76,7.45a.23.23,0,0,0,.14-.42,20.9,20.9,0,0,1-4.68-3.82,13.7,13.7,0,0,0-11.49-5.52c1-.84,2.07-1.66,3.12-2.44,2.3,1.73,10.55,7.57,17.21,7.5a.19.19,0,0,0,.1-.35,14.12,14.12,0,0,1-3.58-3.62,15.11,15.11,0,0,0-10.13-6c1-.65,2-1.26,3-1.82,1.85,1.64,8.22,6.78,15.63,7a.15.15,0,0,0,.08-.28,11.79,11.79,0,0,1-2.71-2.42c-1.29-1.63-3.38-4.26-10.1-5.83.64-.3,1.28-.58,1.91-.83l1.09-.43c1.83,1.69,6.84,5.49,15.29,5.9,0,0,.06,0,0-.07a17.93,17.93,0,0,1-3.89-3.34A14.82,14.82,0,0,0,53.3,48l1.88-.81c2.27,1.22,8.59,4.38,13.17,4.21a.15.15,0,0,0,.07-.27A16.34,16.34,0,0,1,66,49.27a13.88,13.88,0,0,0-7.78-3.42l2.48-1.16c1.8,1,7,3.73,11.87,3.68a.22.22,0,0,0,.09-.42A21.46,21.46,0,0,1,70,46.33a14.73,14.73,0,0,0-7.16-2.65c.93-.47,1.86-.93,2.77-1.4a21,21,0,0,0,10.81,3.16.08.08,0,0,0,0-.16,22.94,22.94,0,0,1-2.25-1.2,21,21,0,0,0-6.51-2.9l1.5-.82a18.24,18.24,0,0,0,11.1,1.74.08.08,0,0,0,0-.15,7.81,7.81,0,0,1-2.89-1,11.63,11.63,0,0,0-6.08-1.78l2.29-1.35a15.16,15.16,0,0,0,9.71,1.32s0-.08,0-.08A13.12,13.12,0,0,1,80,37.84a10.57,10.57,0,0,0-4.83-1c.68-.43,1.35-.86,2-1.3a16.92,16.92,0,0,0,8.25.81s0,0,0,0a10.14,10.14,0,0,1-2.88-.82,9.67,9.67,0,0,0-3.9-1l1.26-.9c1.36.3,5,.94,7.22-.28a.08.08,0,0,0,0-.14,8.22,8.22,0,0,1-2.3-.42,9.63,9.63,0,0,0-3.57-.14c.45-.35.89-.69,1.32-1a9.6,9.6,0,0,0,6.2-.85,0,0,0,0,0,0-.09,15.48,15.48,0,0,1-2.46-.12,8.56,8.56,0,0,0-2.37-.06l1-.85a7.22,7.22,0,0,0,5.27-1.19.06.06,0,0,0,0-.11,4.15,4.15,0,0,1-1.17,0,5.47,5.47,0,0,0-2.7,0l.83-.83a5.39,5.39,0,0,0,4-1.33.09.09,0,0,0-.08-.15,5.4,5.4,0,0,1-1.33.19,7.09,7.09,0,0,0-1.64.21l.56-.66a4.19,4.19,0,0,0,3.35-1.43.11.11,0,0,0-.13-.17,4.07,4.07,0,0,1-1.14.34,7.18,7.18,0,0,0-1.23.2c.13-.19.27-.37.39-.55C92.05,23.83,92.69,20.76,92.84,19.72Z"></path></svg></svg> <defs><filter id="colors4349428139"><feColorMatrix type="matrix" values="0 0 0 0 0.99609375  0 0 0 0 0.99609375  0 0 0 0 0.99609375  0 0 0 1 0" class="icon-fecolormatrix"></feColorMatrix></filter> <filter id="colorsf4848339908"><feColorMatrix type="matrix" values="0 0 0 0 0.99609375  0 0 0 0 0.99609375  0 0 0 0 0.99609375  0 0 0 1 0" class="icon-fecolormatrix"></feColorMatrix></filter> <filter id="colorsb3281562660"><feColorMatrix type="matrix" values="0 0 0 0 0  0 0 0 0 0  0 0 0 0 0  0 0 0 1 0" class="icon-fecolormatrix"></feColorMatrix></filter></defs></g></g> <g transform="translate(0,51.721046447753906)"><g fill-rule="" class="tp-name iconsvg-namesvg" transform="translate(0,0)"><g transform="scale(1.2200000000000002)"><g><path d="M2.51 0.12L2.51 0.12Q1.87 0.12 1.61-0.11 1.34-0.35 1.34-0.91L1.34-0.91 1.34-10.21Q1.54-10.45 1.91-10.59 2.29-10.73 2.74-10.73L2.74-10.73Q3.28-10.73 3.71-10.54 4.14-10.35 4.47-9.77L4.47-9.77 6.98-5.25Q7.33-4.62 7.65-3.95 7.98-3.28 8.22-2.72L8.22-2.72 8.29-2.74Q8.2-3.77 8.18-4.74 8.15-5.71 8.15-6.65L8.15-6.65 8.15-10.61Q8.29-10.65 8.58-10.69 8.87-10.73 9.16-10.73L9.16-10.73Q9.81-10.73 10.08-10.5 10.35-10.26 10.35-9.7L10.35-9.7 10.35-0.28Q10.16-0.09 9.8 0.02 9.44 0.12 8.95 0.12L8.95 0.12Q8.43 0.12 8-0.06 7.57-0.24 7.24-0.82L7.24-0.82 4.73-5.34Q4.38-5.95 4.06-6.64 3.73-7.33 3.49-7.89L3.49-7.89 3.39-7.87Q3.47-6.91 3.5-5.9 3.53-4.89 3.53-3.98L3.53-3.98 3.53-0.02Q3.39 0.02 3.11 0.07 2.83 0.12 2.51 0.12ZM14.24 0.03L14.24 0.03Q13.68 0.03 13.36-0.3 13.04-0.63 13.04-1.19L13.04-1.19 13.04-9.39Q13.04-9.95 13.36-10.27 13.68-10.59 14.24-10.59L14.24-10.59 20.02-10.59Q20.1-10.45 20.17-10.23 20.24-10 20.24-9.72L20.24-9.72Q20.24-9.27 20.03-9.02 19.83-8.78 19.46-8.78L19.46-8.78 15.24-8.78 15.24-6.3 19.49-6.3Q19.58-6.16 19.66-5.94 19.74-5.72 19.74-5.45L19.74-5.45Q19.74-4.5 18.94-4.5L18.94-4.5 15.24-4.5 15.24-1.8 20.09-1.8Q20.17-1.66 20.25-1.42 20.33-1.19 20.33-0.91L20.33-0.91Q20.33 0.03 19.53 0.03L19.53 0.03 14.24 0.03ZM27.26-7.99L27.26-7.99Q27.43-8.08 27.74-8.16 28.05-8.24 28.38-8.24L28.38-8.24Q28.94-8.24 29.29-8.07 29.65-7.91 29.74-7.57L29.74-7.57Q30-6.74 30.22-6.02 30.44-5.31 30.65-4.63 30.86-3.96 31.05-3.31 31.24-2.65 31.43-1.95L31.43-1.95 31.5-1.95Q31.71-3.07 31.88-4.12 32.06-5.17 32.23-6.2 32.41-7.23 32.56-8.27 32.71-9.32 32.86-10.44L32.86-10.44Q33.32-10.68 33.86-10.68L33.86-10.68Q34.35-10.68 34.69-10.46 35.03-10.24 35.03-9.76L35.03-9.76Q35.03-9.41 34.94-8.71 34.85-8.01 34.7-7.14 34.55-6.27 34.35-5.28 34.15-4.29 33.94-3.36 33.72-2.43 33.5-1.62 33.28-0.82 33.07-0.31L33.07-0.31Q32.86-0.14 32.44-0.02 32.02 0.1 31.55 0.1L31.55 0.1Q30.94 0.1 30.51-0.08 30.09-0.26 30-0.56L30-0.56Q29.84-0.96 29.66-1.51 29.48-2.06 29.28-2.71 29.08-3.35 28.87-4.06 28.66-4.76 28.46-5.5L28.46-5.5Q28.27-4.78 28.07-4.04 27.87-3.3 27.68-2.61 27.49-1.92 27.29-1.32 27.1-0.72 26.95-0.3L26.95-0.3Q26.75-0.14 26.36-0.02 25.97 0.1 25.5 0.1L25.5 0.1Q24.9 0.1 24.45-0.08 24-0.26 23.86-0.56L23.86-0.56Q23.7-0.91 23.51-1.55 23.32-2.2 23.11-3.03 22.9-3.86 22.69-4.82 22.48-5.78 22.29-6.73 22.09-7.68 21.93-8.58 21.76-9.48 21.68-10.21L21.68-10.21Q21.87-10.38 22.18-10.53 22.5-10.68 22.9-10.68L22.9-10.68Q23.39-10.68 23.69-10.45 24-10.23 24.08-9.72L24.08-9.72Q24.35-8.27 24.54-7.16 24.73-6.06 24.9-5.15 25.06-4.24 25.21-3.47 25.36-2.71 25.51-1.95L25.51-1.95 25.6-1.95Q25.79-2.71 25.98-3.35 26.16-4 26.35-4.68 26.54-5.36 26.76-6.15 26.98-6.95 27.26-7.99ZM40.4 0L40.4 0Q40.17-0.19 40.03-0.49 39.9-0.79 39.9-1.15L39.9-1.15Q39.9-1.5 40.06-1.83 40.23-2.16 40.47-2.48L40.47-2.48 45.36-8.74 40.28-8.74Q40.19-8.9 40.11-9.13 40.03-9.35 40.03-9.65L40.03-9.65Q40.03-10.14 40.25-10.38 40.47-10.63 40.87-10.63L40.87-10.63 47.56-10.63Q48.12-10.16 48.12-9.44L48.12-9.44Q48.12-9.09 47.97-8.78 47.82-8.46 47.57-8.15L47.57-8.15 42.67-1.87 47.98-1.87Q48.06-1.71 48.15-1.48 48.24-1.26 48.24-0.96L48.24-0.96Q48.24-0.47 48.02-0.24 47.8 0 47.42 0L47.42 0 40.4 0ZM51.47 0.03L51.47 0.03Q50.91 0.03 50.58-0.3 50.26-0.63 50.26-1.19L50.26-1.19 50.26-9.39Q50.26-9.95 50.58-10.27 50.91-10.59 51.47-10.59L51.47-10.59 57.24-10.59Q57.33-10.45 57.4-10.23 57.47-10 57.47-9.72L57.47-9.72Q57.47-9.27 57.26-9.02 57.05-8.78 56.68-8.78L56.68-8.78 52.46-8.78 52.46-6.3 56.72-6.3Q56.81-6.16 56.88-5.94 56.96-5.72 56.96-5.45L56.96-5.45Q56.96-4.5 56.16-4.5L56.16-4.5 52.46-4.5 52.46-1.8 57.31-1.8Q57.4-1.66 57.48-1.42 57.56-1.19 57.56-0.91L57.56-0.91Q57.56 0.03 56.75 0.03L56.75 0.03 51.47 0.03ZM66.35-0.75L65.83-2.5 61.92-2.5Q61.73-1.85 61.51-1.15 61.29-0.45 61.15 0L61.15 0Q60.98 0.07 60.78 0.12 60.58 0.17 60.28 0.17L60.28 0.17Q59.69 0.17 59.35-0.06 59.02-0.3 59.02-0.73L59.02-0.73Q59.02-0.94 59.08-1.14 59.14-1.34 59.23-1.61L59.23-1.61Q59.37-2.09 59.61-2.78 59.84-3.47 60.11-4.28 60.38-5.1 60.7-5.96 61.01-6.82 61.3-7.64 61.59-8.45 61.86-9.15 62.13-9.86 62.32-10.37L62.32-10.37Q62.55-10.49 62.99-10.61 63.44-10.73 63.89-10.73L63.89-10.73Q64.5-10.73 65.01-10.55 65.51-10.37 65.65-9.97L65.65-9.97Q66-9.01 66.42-7.76 66.84-6.51 67.27-5.18 67.7-3.86 68.1-2.58 68.5-1.31 68.81-0.3L68.81-0.3Q68.64-0.1 68.33 0.03 68.03 0.16 67.61 0.16L67.61 0.16Q67 0.16 66.75-0.06 66.49-0.28 66.35-0.75L66.35-0.75ZM63.96-8.74L63.87-8.74Q63.72-8.31 63.53-7.77 63.35-7.23 63.15-6.64 62.95-6.06 62.74-5.45 62.53-4.85 62.34-4.28L62.34-4.28 65.38-4.28 63.96-8.74ZM71.76 0.03L71.76 0.03Q71.2 0.03 70.88-0.3 70.56-0.63 70.56-1.19L70.56-1.19 70.56-10.59Q70.7-10.63 71-10.68 71.31-10.73 71.61-10.73L71.61-10.73Q72.23-10.73 72.53-10.51 72.83-10.28 72.83-9.67L72.83-9.67 72.83-1.83 77.31-1.83Q77.4-1.69 77.49-1.46 77.57-1.22 77.57-0.94L77.57-0.94Q77.57-0.47 77.36-0.22 77.14 0.03 76.75 0.03L76.75 0.03 71.76 0.03ZM86.02-0.75L85.5-2.5 81.59-2.5Q81.4-1.85 81.18-1.15 80.96-0.45 80.82 0L80.82 0Q80.65 0.07 80.45 0.12 80.24 0.17 79.95 0.17L79.95 0.17Q79.35 0.17 79.02-0.06 78.69-0.3 78.69-0.73L78.69-0.73Q78.69-0.94 78.75-1.14 78.81-1.34 78.9-1.61L78.9-1.61Q79.04-2.09 79.28-2.78 79.51-3.47 79.78-4.28 80.05-5.1 80.37-5.96 80.68-6.82 80.97-7.64 81.26-8.45 81.53-9.15 81.8-9.86 81.99-10.37L81.99-10.37Q82.22-10.49 82.66-10.61 83.11-10.73 83.56-10.73L83.56-10.73Q84.17-10.73 84.68-10.55 85.18-10.37 85.32-9.97L85.32-9.97Q85.67-9.01 86.09-7.76 86.51-6.51 86.94-5.18 87.36-3.86 87.77-2.58 88.17-1.31 88.48-0.3L88.48-0.3Q88.31-0.1 88 0.03 87.7 0.16 87.28 0.16L87.28 0.16Q86.67 0.16 86.41-0.06 86.16-0.28 86.02-0.75L86.02-0.75ZM83.63-8.74L83.54-8.74Q83.39-8.31 83.2-7.77 83.02-7.23 82.82-6.64 82.62-6.06 82.41-5.45 82.2-4.85 82.01-4.28L82.01-4.28 85.04-4.28 83.63-8.74ZM91.4 0.12L91.4 0.12Q90.75 0.12 90.49-0.11 90.23-0.35 90.23-0.91L90.23-0.91 90.23-10.21Q90.42-10.45 90.79-10.59 91.17-10.73 91.62-10.73L91.62-10.73Q92.16-10.73 92.59-10.54 93.02-10.35 93.35-9.77L93.35-9.77 95.86-5.25Q96.21-4.62 96.54-3.95 96.86-3.28 97.1-2.72L97.1-2.72 97.17-2.74Q97.09-3.77 97.06-4.74 97.03-5.71 97.03-6.65L97.03-6.65 97.03-10.61Q97.17-10.65 97.46-10.69 97.75-10.73 98.05-10.73L98.05-10.73Q98.69-10.73 98.96-10.5 99.23-10.26 99.23-9.7L99.23-9.7 99.23-0.28Q99.04-0.09 98.68 0.02 98.32 0.12 97.84 0.12L97.84 0.12Q97.31 0.12 96.88-0.06 96.46-0.24 96.13-0.82L96.13-0.82 93.61-5.34Q93.26-5.95 92.94-6.64 92.62-7.33 92.37-7.89L92.37-7.89 92.27-7.87Q92.36-6.91 92.38-5.9 92.41-4.89 92.41-3.98L92.41-3.98 92.41-0.02Q92.27 0.02 91.99 0.07 91.71 0.12 91.4 0.12ZM108.99-5.34L108.99-5.34Q108.99-6.28 108.73-6.97 108.46-7.66 108-8.11 107.54-8.55 106.9-8.77 106.27-8.99 105.51-8.99L105.51-8.99Q105.11-8.99 104.79-8.96 104.47-8.94 104.17-8.9L104.17-8.9 104.17-1.73Q104.47-1.66 104.84-1.63 105.22-1.61 105.58-1.61L105.58-1.61Q107.21-1.61 108.1-2.55 108.99-3.49 108.99-5.34ZM111.31-5.36L111.31-5.36Q111.31-3.94 110.9-2.89 110.49-1.83 109.74-1.14 108.99-0.45 107.93-0.1 106.88 0.24 105.58 0.24L105.58 0.24Q105.29 0.24 104.94 0.24 104.59 0.23 104.21 0.18 103.84 0.14 103.46 0.07 103.09 0 102.76-0.12L102.76-0.12Q101.92-0.44 101.92-1.17L101.92-1.17 101.92-9.72Q101.92-10.03 102.09-10.21 102.27-10.38 102.58-10.49L102.58-10.49Q103.23-10.72 103.99-10.78 104.75-10.84 105.43-10.84L105.43-10.84Q106.74-10.84 107.83-10.5 108.92-10.16 109.69-9.48 110.45-8.8 110.88-7.77 111.31-6.74 111.31-5.36ZM125.01-7.87L125.01-7.87Q125.01-7.09 124.6-6.51 124.19-5.93 123.37-5.58L123.37-5.58Q124.38-5.25 124.89-4.59 125.39-3.93 125.39-3.02L125.39-3.02Q125.39-1.36 124.19-0.56 122.98 0.24 120.7 0.24L120.7 0.24Q120.37 0.24 119.99 0.23 119.62 0.21 119.23 0.17 118.85 0.12 118.46 0.04 118.08-0.03 117.75-0.14L117.75-0.14Q116.91-0.42 116.91-1.17L116.91-1.17 116.91-9.7Q116.91-10.03 117.09-10.21 117.26-10.38 117.57-10.49L117.57-10.49Q118.17-10.68 118.95-10.76 119.74-10.84 120.59-10.84L120.59-10.84Q122.71-10.84 123.86-10.11 125.01-9.39 125.01-7.87ZM123.09-3.11L123.09-3.11Q123.09-3.8 122.59-4.21 122.09-4.61 121.15-4.61L121.15-4.61 119.11-4.61 119.11-1.69Q119.44-1.61 119.9-1.57 120.37-1.54 120.82-1.54L120.82-1.54Q121.88-1.54 122.49-1.91 123.09-2.29 123.09-3.11ZM119.11-8.97L119.11-6.27 120.87-6.27Q121.82-6.27 122.28-6.65 122.74-7.03 122.74-7.71L122.74-7.71Q122.74-9.09 120.61-9.09L120.61-9.09Q120.17-9.09 119.78-9.06 119.39-9.02 119.11-8.97L119.11-8.97ZM129.81-3.7L129.81-0.02Q129.65 0.02 129.36 0.07 129.08 0.12 128.74 0.12L128.74 0.12Q128.08 0.12 127.81-0.12 127.54-0.37 127.54-0.94L127.54-0.94 127.54-9.7Q127.54-10.03 127.71-10.21 127.89-10.38 128.2-10.49L128.2-10.49Q128.76-10.68 129.52-10.76 130.28-10.84 131.08-10.84L131.08-10.84Q133.39-10.84 134.54-9.89 135.69-8.94 135.69-7.26L135.69-7.26Q135.69-6.16 135.11-5.35 134.54-4.54 133.53-4.1L133.53-4.1Q134.29-3.11 135-2.21 135.71-1.31 136.06-0.8L136.06-0.8Q135.92-0.35 135.57-0.1 135.22 0.16 134.8 0.16L134.8 0.16Q134.26 0.16 133.97-0.09 133.68-0.33 133.4-0.75L133.4-0.75 131.43-3.7 129.81-3.7ZM129.77-5.48L131.2-5.48Q132.2-5.48 132.8-5.92 133.4-6.35 133.4-7.24L133.4-7.24Q133.4-9.01 131.05-9.01L131.05-9.01Q130.7-9.01 130.38-8.97 130.05-8.94 129.77-8.9L129.77-8.9 129.77-5.48ZM144.57-0.75L144.05-2.5 140.14-2.5Q139.95-1.85 139.73-1.15 139.51-0.45 139.37 0L139.37 0Q139.2 0.07 139 0.12 138.8 0.17 138.5 0.17L138.5 0.17Q137.91 0.17 137.57-0.06 137.24-0.3 137.24-0.73L137.24-0.73Q137.24-0.94 137.3-1.14 137.36-1.34 137.45-1.61L137.45-1.61Q137.59-2.09 137.83-2.78 138.06-3.47 138.33-4.28 138.6-5.1 138.92-5.96 139.23-6.82 139.52-7.64 139.81-8.45 140.08-9.15 140.35-9.86 140.54-10.37L140.54-10.37Q140.77-10.49 141.21-10.61 141.66-10.73 142.11-10.73L142.11-10.73Q142.72-10.73 143.23-10.55 143.73-10.37 143.87-9.97L143.87-9.97Q144.22-9.01 144.64-7.76 145.06-6.51 145.49-5.18 145.92-3.86 146.32-2.58 146.72-1.31 147.03-0.3L147.03-0.3Q146.86-0.1 146.55 0.03 146.25 0.16 145.83 0.16L145.83 0.16Q145.22 0.16 144.97-0.06 144.71-0.28 144.57-0.75L144.57-0.75ZM142.18-8.74L142.09-8.74Q141.94-8.31 141.75-7.77 141.57-7.23 141.37-6.64 141.17-6.06 140.96-5.45 140.75-4.85 140.56-4.28L140.56-4.28 143.6-4.28 142.18-8.74ZM149.95 0.12L149.95 0.12Q149.3 0.12 149.04-0.11 148.78-0.35 148.78-0.91L148.78-0.91 148.78-10.21Q148.97-10.45 149.35-10.59 149.72-10.73 150.17-10.73L150.17-10.73Q150.72-10.73 151.14-10.54 151.57-10.35 151.9-9.77L151.9-9.77 154.42-5.25Q154.76-4.62 155.09-3.95 155.41-3.28 155.65-2.72L155.65-2.72 155.72-2.74Q155.64-3.77 155.61-4.74 155.58-5.71 155.58-6.65L155.58-6.65 155.58-10.61Q155.72-10.65 156.01-10.69 156.3-10.73 156.6-10.73L156.6-10.73Q157.24-10.73 157.51-10.5 157.78-10.26 157.78-9.7L157.78-9.7 157.78-0.28Q157.59-0.09 157.23 0.02 156.88 0.12 156.39 0.12L156.39 0.12Q155.86 0.12 155.44-0.06 155.01-0.24 154.68-0.82L154.68-0.82 152.16-5.34Q151.82-5.95 151.49-6.64 151.17-7.33 150.92-7.89L150.92-7.89 150.82-7.87Q150.91-6.91 150.93-5.9 150.96-4.89 150.96-3.98L150.96-3.98 150.96-0.02Q150.82 0.02 150.54 0.07 150.26 0.12 149.95 0.12ZM167.54-5.34L167.54-5.34Q167.54-6.28 167.28-6.97 167.02-7.66 166.55-8.11 166.09-8.55 165.45-8.77 164.82-8.99 164.07-8.99L164.07-8.99Q163.66-8.99 163.34-8.96 163.02-8.94 162.72-8.9L162.72-8.9 162.72-1.73Q163.02-1.66 163.39-1.63 163.77-1.61 164.14-1.61L164.14-1.61Q165.76-1.61 166.65-2.55 167.54-3.49 167.54-5.34ZM169.86-5.36L169.86-5.36Q169.86-3.94 169.45-2.89 169.04-1.83 168.29-1.14 167.54-0.45 166.48-0.1 165.43 0.24 164.14 0.24L164.14 0.24Q163.84 0.24 163.49 0.24 163.14 0.23 162.77 0.18 162.39 0.14 162.02 0.07 161.64 0 161.31-0.12L161.31-0.12Q160.47-0.44 160.47-1.17L160.47-1.17 160.47-9.72Q160.47-10.03 160.65-10.21 160.82-10.38 161.13-10.49L161.13-10.49Q161.78-10.72 162.54-10.78 163.3-10.84 163.98-10.84L163.98-10.84Q165.29-10.84 166.38-10.5 167.47-10.16 168.24-9.48 169.01-8.8 169.43-7.77 169.86-6.74 169.86-5.36ZM175.06-1.59L175.06-1.59Q176.07-1.59 176.54-1.98 177.02-2.37 177.02-2.97L177.02-2.97Q177.02-3.51 176.65-3.83 176.28-4.15 175.53-4.38L175.53-4.38 174.42-4.73Q173.75-4.94 173.21-5.2 172.67-5.46 172.29-5.82 171.9-6.18 171.69-6.66 171.48-7.14 171.48-7.8L171.48-7.8Q171.48-9.21 172.55-10.04 173.61-10.87 175.46-10.87L175.46-10.87Q176.2-10.87 176.82-10.76 177.43-10.65 177.89-10.45 178.34-10.24 178.6-9.95 178.85-9.65 178.85-9.28L178.85-9.28Q178.85-8.94 178.68-8.68 178.52-8.43 178.27-8.27L178.27-8.27Q177.85-8.57 177.16-8.79 176.47-9.01 175.65-9.01L175.65-9.01Q174.75-9.01 174.28-8.68 173.8-8.36 173.8-7.8L173.8-7.8Q173.8-7.35 174.13-7.1 174.45-6.86 175.15-6.63L175.15-6.63 176.14-6.32Q177.66-5.86 178.5-5.08 179.34-4.29 179.34-2.95L179.34-2.95Q179.34-2.23 179.06-1.64 178.78-1.05 178.25-0.62 177.71-0.19 176.92 0.04 176.13 0.28 175.11 0.28L175.11 0.28Q174.31 0.28 173.64 0.14 172.97 0 172.48-0.24 171.99-0.47 171.72-0.79 171.45-1.12 171.45-1.5L171.45-1.5Q171.45-1.9 171.68-2.19 171.92-2.48 172.23-2.62L172.23-2.62Q172.67-2.23 173.39-1.91 174.1-1.59 175.06-1.59Z" transform="translate(-1.340000033378601, 10.869999885559082)"></path></g> </g></g> <g fill-rule="" class="tp-slogan iconsvg-slogansvg" fill="#ffffff" transform="translate(5,19.60300064086914)"><rect x="0" height="1" y="3.580000877380371" width="87.74500179290771"></rect> <rect height="1" y="3.580000877380371" width="87.74500179290771" x="119.41500186920166"></rect> <g transform="translate(90.74500179290771,0)"><g transform="scale(1)"><path d="M1.08-7.87L1.08 0L5.74 0L5.74-0.85L2.08-0.85L2.08-3.71L5.06-3.71L5.06-4.56L2.08-4.56L2.08-7.03L5.62-7.03L5.62-7.87ZM8.80-4.07L6.50 0L7.56 0L8.70-2.12C8.80-2.32 8.90-2.51 9-2.72C9.10-2.92 9.21-3.14 9.32-3.38L9.37-3.38C9.50-3.14 9.62-2.92 9.73-2.72C9.83-2.51 9.94-2.32 10.04-2.12L11.20 0L12.30 0L10.01-4.02L12.16-7.87L11.10-7.87L10.06-5.86C9.96-5.67 9.87-5.49 9.79-5.32C9.70-5.15 9.60-4.95 9.49-4.72L9.44-4.72C9.32-4.95 9.22-5.15 9.13-5.32C9.03-5.49 8.94-5.67 8.83-5.86L7.76-7.87L6.66-7.87ZM13.56-7.87L13.56 0L14.56 0L14.56-3.12L15.97-3.12C16.40-3.12 16.80-3.17 17.15-3.27C17.51-3.37 17.82-3.52 18.07-3.72C18.33-3.92 18.53-4.17 18.67-4.48C18.81-4.78 18.88-5.14 18.88-5.56C18.88-5.99 18.81-6.35 18.67-6.65C18.53-6.94 18.33-7.18 18.08-7.36C17.83-7.54 17.52-7.67 17.16-7.75C16.80-7.83 16.40-7.87 15.97-7.87ZM15.85-3.94L14.56-3.94L14.56-7.07L15.85-7.07C16.53-7.07 17.04-6.96 17.38-6.74C17.71-6.52 17.88-6.12 17.88-5.56C17.88-5.00 17.71-4.59 17.38-4.33C17.05-4.07 16.54-3.94 15.85-3.94ZM23.38 0.14C23.87 0.14 24.33 0.05 24.74-0.14C25.15-0.34 25.51-0.61 25.81-0.97C26.11-1.32 26.34-1.75 26.50-2.26C26.67-2.77 26.75-3.34 26.75-3.97C26.75-4.60 26.67-5.16 26.50-5.66C26.34-6.16 26.11-6.58 25.81-6.93C25.51-7.28 25.15-7.55 24.74-7.73C24.33-7.92 23.87-8.02 23.38-8.02C22.88-8.02 22.43-7.92 22.01-7.74C21.60-7.56 21.25-7.29 20.95-6.94C20.66-6.59 20.43-6.17 20.26-5.67C20.10-5.17 20.02-4.60 20.02-3.97C20.02-3.34 20.10-2.77 20.26-2.26C20.43-1.75 20.66-1.32 20.95-0.97C21.25-0.61 21.60-0.34 22.01-0.14C22.43 0.05 22.88 0.14 23.38 0.14ZM23.38-0.73C23.02-0.73 22.71-0.81 22.42-0.96C22.14-1.11 21.89-1.33 21.69-1.61C21.49-1.90 21.33-2.24 21.22-2.63C21.10-3.03 21.05-3.48 21.05-3.97C21.05-4.46 21.10-4.90 21.22-5.29C21.33-5.68 21.49-6.02 21.69-6.29C21.89-6.56 22.14-6.77 22.42-6.92C22.71-7.07 23.02-7.14 23.38-7.14C23.73-7.14 24.05-7.07 24.33-6.92C24.61-6.77 24.86-6.56 25.06-6.29C25.27-6.02 25.42-5.68 25.54-5.29C25.65-4.90 25.70-4.46 25.70-3.97C25.70-3.48 25.65-3.03 25.54-2.63C25.42-2.24 25.27-1.90 25.06-1.61C24.86-1.33 24.61-1.11 24.33-0.96C24.05-0.81 23.73-0.73 23.38-0.73Z" transform="translate(-1.08, 8.016)"></path></g></g></g></g></g></g></mask><defs v-gra="od"></defs></g></svg>